<svg id="svg" version="1.1" xmlns="http://www.w3.org/2000/svg" xmlns:xlink="http://www.w3.org/1999/xlink" width="400" height="400" viewBox="0, 0, 400,400"><g id="svgg"><path id="path0" d="M106.200 89.803 C 100.093 91.096,98.504 91.517,97.200 92.190 C 95.797 92.914,92.375 95.144,92.000 95.579 C 91.890 95.706,90.855 96.520,89.700 97.388 C 88.545 98.255,87.599 99.062,87.598 99.182 C 87.597 99.302,87.090 99.940,86.472 100.600 C 79.052 108.516,77.866 114.144,78.097 140.332 C 78.265 159.271,78.310 159.635,80.850 162.301 C 84.453 166.083,86.383 166.400,105.816 166.400 L 122.020 166.400 122.410 167.426 C 122.657 168.075,122.800 189.494,122.800 225.764 C 122.800 281.774,122.818 283.129,123.590 285.438 C 124.025 286.737,124.385 288.090,124.390 288.445 C 124.406 289.468,127.468 295.155,129.241 297.454 C 134.553 304.338,141.457 308.443,150.735 310.234 C 155.113 311.078,289.287 311.078,293.665 310.234 C 301.847 308.655,309.038 304.850,313.068 299.966 C 313.688 299.215,314.689 298.060,315.293 297.400 C 316.750 295.807,319.727 289.701,320.767 286.172 C 321.544 283.534,321.600 282.363,321.600 268.849 C 321.600 250.861,321.375 249.848,316.612 246.426 L 314.627 245.000 301.931 244.862 C 292.593 244.761,289.129 244.596,288.832 244.238 C 288.565 243.917,288.389 222.074,288.314 179.776 L 288.200 115.800 286.939 112.184 C 286.246 110.196,285.121 107.623,284.439 106.467 C 283.758 105.311,283.200 104.275,283.200 104.165 C 283.200 103.811,280.321 100.680,277.162 97.600 C 273.245 93.781,269.329 91.665,263.546 90.245 L 259.291 89.200 183.946 89.248 C 124.720 89.285,108.087 89.404,106.200 89.803 M113.383 111.382 C 117.962 112.340,121.037 115.210,122.211 119.623 C 122.918 122.279,123.064 142.359,122.386 143.626 C 121.717 144.877,100.654 144.822,99.983 143.568 C 99.045 141.816,99.658 119.252,100.690 117.511 C 102.733 114.068,105.267 112.096,108.599 111.355 C 109.700 111.111,110.600 110.886,110.600 110.855 C 110.600 110.825,111.852 111.062,113.383 111.382 M258.818 111.306 C 261.711 112.315,264.290 114.521,265.303 116.854 C 265.625 117.594,266.138 118.740,266.444 119.400 C 267.008 120.618,267.554 241.658,267.005 243.900 L 266.785 244.800 222.651 244.800 C 176.217 244.800,174.124 244.853,172.833 246.055 C 172.393 246.465,171.938 246.800,171.821 246.800 C 170.728 246.800,168.107 250.742,167.473 253.339 C 167.250 254.253,166.963 260.850,166.834 268.000 C 166.576 282.345,166.534 282.588,163.857 285.230 C 158.591 290.427,149.881 289.695,145.929 283.723 C 144.266 281.210,144.287 282.125,143.991 198.800 C 143.799 144.729,143.567 117.753,143.276 116.000 C 143.040 114.570,142.725 112.815,142.578 112.100 L 142.309 110.800 199.855 110.806 C 244.486 110.811,257.718 110.923,258.818 111.306 M175.167 145.165 C 169.767 146.248,165.645 152.920,167.255 157.972 C 168.040 160.433,168.552 161.306,170.200 162.994 C 171.714 164.546,172.232 164.870,174.919 165.950 C 176.593 166.623,234.484 166.570,236.400 165.894 C 245.742 162.598,246.791 150.973,238.200 145.938 L 236.600 145.000 206.600 144.939 C 190.100 144.905,175.955 145.007,175.167 145.165 M173.455 190.174 C 166.187 193.749,164.726 202.589,170.532 207.864 C 173.968 210.986,171.999 210.828,205.950 210.707 L 236.200 210.600 238.000 209.664 C 241.967 207.602,244.000 204.327,244.000 200.000 C 244.000 195.673,241.967 192.398,238.000 190.336 L 236.200 189.400 205.800 189.309 L 175.400 189.217 173.455 190.174 M299.771 267.029 C 301.515 268.772,300.263 281.495,298.076 284.266 C 293.980 289.454,296.893 289.219,238.075 289.102 L 187.400 289.000 187.272 287.880 C 187.201 287.265,187.426 285.633,187.772 284.255 C 188.217 282.478,188.400 279.814,188.400 275.100 C 188.400 271.444,188.576 267.990,188.790 267.426 L 189.180 266.400 244.162 266.400 C 293.611 266.400,299.206 266.463,299.771 267.029 " stroke="none" fill="#04a1f8" fill-rule="evenodd"></path><path id="path1" d="M54.800 10.000 C 54.800 10.220,54.001 10.400,53.024 10.400 C 52.047 10.400,51.136 10.580,51.000 10.800 C 50.864 11.020,50.133 11.200,49.376 11.200 C 48.619 11.200,48.000 11.380,48.000 11.600 C 48.000 11.820,47.460 12.000,46.800 12.000 C 46.140 12.000,45.600 12.180,45.600 12.400 C 45.600 12.620,45.185 12.800,44.679 12.800 C 43.586 12.800,39.600 14.712,39.600 15.236 C 39.600 15.436,39.240 15.600,38.800 15.600 C 38.360 15.600,38.000 15.780,38.000 16.000 C 38.000 16.220,37.680 16.400,37.288 16.400 C 36.897 16.400,36.317 16.760,36.000 17.200 C 35.683 17.640,35.053 18.000,34.600 18.000 C 34.147 18.000,33.517 18.360,33.200 18.800 C 32.883 19.240,32.375 19.600,32.072 19.600 C 31.769 19.600,31.044 20.110,30.460 20.733 C 29.877 21.357,28.950 22.103,28.400 22.391 C 27.850 22.679,27.040 23.369,26.600 23.924 C 26.160 24.478,25.462 25.217,25.050 25.566 C 23.482 26.891,22.400 28.050,22.400 28.405 C 22.400 28.608,21.770 29.403,21.000 30.173 C 20.230 30.943,19.600 31.810,19.600 32.098 C 19.600 32.387,19.240 32.883,18.800 33.200 C 18.360 33.517,18.000 34.147,18.000 34.600 C 18.000 35.053,17.640 35.683,17.200 36.000 C 16.760 36.317,16.400 36.897,16.400 37.288 C 16.400 37.680,16.220 38.000,16.000 38.000 C 15.780 38.000,15.600 38.360,15.600 38.800 C 15.600 39.240,15.436 39.600,15.236 39.600 C 14.712 39.600,12.800 43.586,12.800 44.679 C 12.800 45.185,12.620 45.600,12.400 45.600 C 12.180 45.600,12.000 46.140,12.000 46.800 C 12.000 47.460,11.820 48.000,11.600 48.000 C 11.380 48.000,11.200 48.619,11.200 49.376 C 11.200 50.133,11.020 50.864,10.800 51.000 C 10.580 51.136,10.400 52.047,10.400 53.024 C 10.400 54.001,10.220 54.800,10.000 54.800 C 9.734 54.800,9.600 103.467,9.600 200.000 C 9.600 296.533,9.734 345.200,10.000 345.200 C 10.220 345.200,10.400 345.999,10.400 346.976 C 10.400 347.953,10.580 348.864,10.800 349.000 C 11.020 349.136,11.200 349.867,11.200 350.624 C 11.200 351.381,11.380 352.000,11.600 352.000 C 11.820 352.000,12.000 352.540,12.000 353.200 C 12.000 353.860,12.180 354.400,12.400 354.400 C 12.620 354.400,12.800 354.815,12.800 355.321 C 12.800 356.414,14.712 360.400,15.236 360.400 C 15.436 360.400,15.600 360.760,15.600 361.200 C 15.600 361.640,15.780 362.000,16.000 362.000 C 16.220 362.000,16.400 362.320,16.400 362.712 C 16.400 363.103,16.760 363.683,17.200 364.000 C 17.640 364.317,18.000 364.947,18.000 365.400 C 18.000 365.853,18.360 366.483,18.800 366.800 C 19.240 367.117,19.600 367.613,19.600 367.902 C 19.600 368.190,20.230 369.057,21.000 369.827 C 21.770 370.597,22.400 371.392,22.400 371.595 C 22.400 371.950,23.482 373.109,25.050 374.434 C 25.462 374.783,26.160 375.522,26.600 376.076 C 27.040 376.631,27.850 377.321,28.400 377.609 C 28.950 377.897,29.877 378.643,30.460 379.267 C 31.044 379.890,31.769 380.400,32.072 380.400 C 32.375 380.400,32.883 380.760,33.200 381.200 C 33.517 381.640,34.147 382.000,34.600 382.000 C 35.053 382.000,35.683 382.360,36.000 382.800 C 36.317 383.240,36.897 383.600,37.288 383.600 C 37.680 383.600,38.000 383.780,38.000 384.000 C 38.000 384.220,38.360 384.400,38.800 384.400 C 39.240 384.400,39.600 384.564,39.600 384.764 C 39.600 385.288,43.586 387.200,44.679 387.200 C 45.185 387.200,45.600 387.380,45.600 387.600 C 45.600 387.820,46.140 388.000,46.800 388.000 C 47.460 388.000,48.000 388.180,48.000 388.400 C 48.000 388.620,48.619 388.800,49.376 388.800 C 50.133 388.800,50.864 388.980,51.000 389.200 C 51.136 389.420,52.047 389.600,53.024 389.600 C 54.001 389.600,54.800 389.780,54.800 390.000 C 54.800 390.266,103.467 390.400,200.000 390.400 C 296.533 390.400,345.200 390.266,345.200 390.000 C 345.200 389.780,345.999 389.600,346.976 389.600 C 347.953 389.600,348.864 389.420,349.000 389.200 C 349.136 388.980,349.867 388.800,350.624 388.800 C 351.381 388.800,352.000 388.620,352.000 388.400 C 352.000 388.180,352.540 388.000,353.200 388.000 C 353.860 388.000,354.400 387.820,354.400 387.600 C 354.400 387.380,354.815 387.200,355.321 387.200 C 356.414 387.200,360.400 385.288,360.400 384.764 C 360.400 384.564,360.760 384.400,361.200 384.400 C 361.640 384.400,362.000 384.220,362.000 384.000 C 362.000 383.780,362.320 383.600,362.712 383.600 C 363.103 383.600,363.683 383.240,364.000 382.800 C 364.317 382.360,364.947 382.000,365.400 382.000 C 365.853 382.000,366.483 381.640,366.800 381.200 C 367.117 380.760,367.613 380.400,367.902 380.400 C 368.190 380.400,369.057 379.770,369.827 379.000 C 370.597 378.230,371.392 377.600,371.595 377.600 C 371.950 377.600,373.109 376.518,374.434 374.950 C 374.783 374.538,375.522 373.840,376.076 373.400 C 376.631 372.960,377.321 372.150,377.609 371.600 C 377.897 371.050,378.643 370.123,379.267 369.540 C 379.890 368.956,380.400 368.231,380.400 367.928 C 380.400 367.625,380.760 367.117,381.200 366.800 C 381.640 366.483,382.000 365.853,382.000 365.400 C 382.000 364.947,382.360 364.317,382.800 364.000 C 383.240 363.683,383.600 363.103,383.600 362.712 C 383.600 362.320,383.780 362.000,384.000 362.000 C 384.220 362.000,384.400 361.640,384.400 361.200 C 384.400 360.760,384.564 360.400,384.764 360.400 C 385.288 360.400,387.200 356.414,387.200 355.321 C 387.200 354.815,387.380 354.400,387.600 354.400 C 387.820 354.400,388.000 353.860,388.000 353.200 C 388.000 352.540,388.180 352.000,388.400 352.000 C 388.620 352.000,388.800 351.381,388.800 350.624 C 388.800 349.867,388.980 349.136,389.200 349.000 C 389.420 348.864,389.600 347.953,389.600 346.976 C 389.600 345.999,389.780 345.200,390.000 345.200 C 390.266 345.200,390.400 296.533,390.400 200.000 C 390.400 103.467,390.266 54.800,390.000 54.800 C 389.780 54.800,389.600 54.001,389.600 53.024 C 389.600 52.047,389.420 51.136,389.200 51.000 C 388.980 50.864,388.800 50.133,388.800 49.376 C 388.800 48.619,388.620 48.000,388.400 48.000 C 388.180 48.000,388.000 47.460,388.000 46.800 C 388.000 46.140,387.820 45.600,387.600 45.600 C 387.380 45.600,387.200 45.185,387.200 44.679 C 387.200 43.586,385.288 39.600,384.764 39.600 C 384.564 39.600,384.400 39.240,384.400 38.800 C 384.400 38.360,384.220 38.000,384.000 38.000 C 383.780 38.000,383.600 37.680,383.600 37.288 C 383.600 36.897,383.240 36.317,382.800 36.000 C 382.360 35.683,382.000 35.053,382.000 34.600 C 382.000 34.147,381.640 33.517,381.200 33.200 C 380.760 32.883,380.400 32.375,380.400 32.072 C 380.400 31.769,379.890 31.044,379.267 30.460 C 378.643 29.877,377.897 28.950,377.609 28.400 C 377.321 27.850,376.631 27.040,376.076 26.600 C 375.522 26.160,374.783 25.462,374.434 25.050 C 373.109 23.482,371.950 22.400,371.595 22.400 C 371.392 22.400,370.597 21.770,369.827 21.000 C 369.057 20.230,368.190 19.600,367.902 19.600 C 367.613 19.600,367.117 19.240,366.800 18.800 C 366.483 18.360,365.853 18.000,365.400 18.000 C 364.947 18.000,364.317 17.640,364.000 17.200 C 363.683 16.760,363.103 16.400,362.712 16.400 C 362.320 16.400,362.000 16.220,362.000 16.000 C 362.000 15.780,361.640 15.600,361.200 15.600 C 360.760 15.600,360.400 15.436,360.400 15.236 C 360.400 14.712,356.414 12.800,355.321 12.800 C 354.815 12.800,354.400 12.620,354.400 12.400 C 354.400 12.180,353.860 12.000,353.200 12.000 C 352.540 12.000,352.000 11.820,352.000 11.600 C 352.000 11.380,351.381 11.200,350.624 11.200 C 349.867 11.200,349.136 11.020,349.000 10.800 C 348.864 10.580,347.953 10.400,346.976 10.400 C 345.999 10.400,345.200 10.220,345.200 10.000 C 345.200 9.734,296.533 9.600,200.000 9.600 C 103.467 9.600,54.800 9.734,54.800 10.000 M265.177 89.728 C 267.255 90.348,269.415 91.175,269.977 91.565 C 270.540 91.955,271.585 92.527,272.300 92.835 C 273.015 93.143,273.600 93.531,273.600 93.698 C 273.600 93.864,273.857 94.000,274.172 94.000 C 275.944 94.000,283.833 103.272,286.133 108.059 C 289.647 115.370,289.600 114.352,289.600 183.809 L 289.600 243.977 301.500 244.126 C 313.021 244.271,316.000 244.501,316.000 245.245 C 316.000 245.440,316.237 245.600,316.526 245.600 C 317.370 245.600,320.644 249.112,321.303 250.724 C 322.472 253.583,322.800 257.103,322.804 266.824 C 322.810 282.517,321.852 288.066,317.976 294.800 C 315.676 298.795,307.475 306.800,305.682 306.800 C 305.476 306.800,304.879 307.130,304.354 307.534 C 302.862 308.681,295.754 310.809,291.982 311.237 C 289.859 311.479,262.350 311.581,219.382 311.508 L 150.200 311.390 145.855 309.895 C 141.656 308.451,138.343 306.921,138.067 306.300 C 137.993 306.135,137.712 306.000,137.442 306.000 C 137.172 306.000,136.599 305.685,136.169 305.300 C 135.739 304.915,134.369 303.743,133.124 302.695 C 130.274 300.296,127.274 296.507,125.765 293.400 C 125.124 292.080,124.465 290.940,124.300 290.867 C 124.135 290.793,124.000 290.446,124.000 290.095 C 124.000 289.275,123.233 286.832,122.651 285.800 C 122.325 285.221,122.145 268.844,122.000 226.561 C 121.833 177.835,121.709 168.013,121.251 167.461 C 120.756 166.866,119.044 166.800,103.970 166.800 C 92.361 166.800,86.895 166.660,86.119 166.344 C 82.878 165.022,82.062 164.518,80.323 162.760 C 79.280 161.706,78.321 160.339,78.193 159.722 C 78.065 159.105,77.778 157.970,77.555 157.200 C 77.030 155.385,77.344 119.899,77.914 116.600 C 79.376 108.143,84.456 99.853,90.800 95.571 C 91.570 95.052,92.435 94.398,92.723 94.119 C 95.042 91.868,101.486 89.506,107.200 88.813 C 108.630 88.639,143.910 88.520,185.600 88.549 L 261.400 88.600 265.177 89.728 M143.217 111.500 C 143.227 111.665,143.423 112.610,143.652 113.600 C 144.843 118.734,144.908 122.760,145.048 201.000 C 145.162 264.309,145.297 281.209,145.696 282.000 C 149.292 289.135,159.701 289.917,164.380 283.402 L 165.800 281.426 166.008 267.813 C 166.157 258.133,166.359 253.948,166.708 253.326 C 166.979 252.846,167.203 252.126,167.207 251.726 C 167.227 249.796,171.598 245.343,174.223 244.581 C 174.870 244.393,195.875 244.184,220.900 244.116 L 266.400 243.993 266.392 184.097 C 266.384 118.476,266.418 119.518,264.125 116.254 C 262.552 114.017,260.220 112.475,257.384 111.798 C 254.770 111.174,143.182 110.882,143.217 111.500 M106.118 113.026 C 103.753 114.139,102.286 115.844,101.171 118.781 C 100.226 121.266,99.976 142.616,100.880 143.520 C 101.713 144.353,120.547 144.187,121.251 143.339 C 122.631 141.679,122.075 120.564,120.567 117.387 C 118.270 112.546,111.491 110.500,106.118 113.026 M236.305 144.366 C 236.687 144.568,237.696 145.036,238.547 145.407 C 246.840 149.024,246.628 161.996,238.212 165.952 C 235.365 167.291,175.821 167.284,172.973 165.945 C 170.952 164.995,168.425 162.616,167.627 160.912 C 167.341 160.300,166.948 159.487,166.753 159.105 C 165.517 156.676,166.841 150.412,169.132 147.853 C 170.251 146.603,173.096 144.800,173.948 144.800 C 174.391 144.800,174.864 144.620,175.000 144.400 C 175.321 143.881,235.322 143.848,236.305 144.366 M238.548 189.790 C 246.750 193.946,246.750 206.054,238.548 210.210 L 236.200 211.400 205.400 211.400 L 174.600 211.400 172.883 210.483 C 164.392 205.949,164.161 194.111,172.479 189.750 C 174.813 188.526,176.129 188.479,206.400 188.540 L 236.200 188.600 238.548 189.790 M189.443 267.833 C 189.309 268.181,189.200 271.696,189.200 275.645 C 189.200 281.825,189.086 283.164,188.380 285.259 C 187.929 286.598,187.640 287.773,187.737 287.870 C 188.204 288.337,291.199 287.961,292.296 287.489 C 296.439 285.703,298.273 283.676,299.071 280.000 C 299.718 277.021,299.752 268.312,299.120 267.680 C 298.287 266.847,189.763 266.998,189.443 267.833 " stroke="none" fill="#1c1c1c" fill-rule="evenodd"></path><path id="path2" d="M146.668 88.700 C 167.166 88.757,200.826 88.757,221.468 88.700 C 242.111 88.643,225.340 88.596,184.200 88.596 C 143.060 88.596,126.171 88.643,146.668 88.700 M106.505 89.087 C 107.114 89.179,108.014 89.177,108.505 89.082 C 108.997 88.987,108.500 88.911,107.400 88.914 C 106.300 88.917,105.897 88.995,106.505 89.087 M260.800 89.234 C 265.155 90.026,265.523 90.049,263.600 89.410 C 262.610 89.081,261.170 88.833,260.400 88.860 C 259.066 88.905,259.084 88.922,260.800 89.234 M101.200 90.014 C 99.770 90.417,98.960 90.752,99.400 90.759 C 99.840 90.766,101.370 90.431,102.800 90.014 C 104.230 89.598,105.040 89.263,104.600 89.270 C 104.160 89.277,102.630 89.612,101.200 90.014 M266.000 90.400 C 266.330 90.613,266.960 90.778,267.400 90.766 L 268.200 90.744 267.400 90.400 C 266.204 89.886,265.205 89.886,266.000 90.400 M95.108 92.502 C 93.628 93.408,92.476 94.209,92.548 94.282 C 92.621 94.354,93.742 93.785,95.040 93.017 C 98.327 91.071,98.655 90.847,98.200 90.851 C 97.980 90.852,96.589 91.596,95.108 92.502 M268.400 90.990 C 268.400 91.094,268.985 91.465,269.700 91.814 L 271.000 92.448 270.000 91.633 C 269.037 90.848,268.400 90.592,268.400 90.990 M275.861 95.784 C 276.928 96.765,277.928 97.575,278.084 97.584 C 278.492 97.607,283.544 103.931,284.258 105.313 C 284.589 105.952,284.952 106.381,285.065 106.268 C 285.768 105.566,275.650 94.000,274.333 94.000 C 274.107 94.000,274.795 94.803,275.861 95.784 M90.600 95.672 C 87.891 97.583,81.149 105.282,81.701 105.834 C 81.799 105.932,82.508 105.064,83.278 103.906 C 84.812 101.597,88.099 98.099,90.600 96.113 C 92.413 94.673,92.413 94.393,90.600 95.672 M80.640 107.640 C 80.245 108.308,80.011 108.944,80.119 109.053 C 80.228 109.161,80.606 108.669,80.960 107.960 C 81.793 106.290,81.570 106.066,80.640 107.640 M79.011 112.117 C 78.595 113.483,78.087 115.590,77.880 116.800 C 77.338 119.984,77.053 155.462,77.555 157.200 C 77.778 157.970,78.054 159.058,78.167 159.619 C 78.281 160.179,79.026 161.349,79.824 162.219 L 81.273 163.800 79.979 162.070 C 77.896 159.284,77.800 158.245,77.800 138.400 C 77.800 119.461,77.933 117.181,79.295 112.692 C 79.747 111.202,80.038 109.905,79.942 109.809 C 79.846 109.713,79.427 110.751,79.011 112.117 M286.831 110.500 C 286.872 111.158,288.329 115.100,288.369 114.662 C 288.415 114.155,287.170 110.000,286.972 110.000 C 286.877 110.000,286.814 110.225,286.831 110.500 M142.828 111.700 C 142.844 112.195,143.026 112.960,143.232 113.400 C 143.512 113.995,143.552 113.816,143.386 112.700 L 143.164 111.200 199.082 111.214 C 263.733 111.231,259.769 110.966,263.637 115.530 C 264.322 116.338,264.700 116.640,264.476 116.200 C 263.996 115.257,262.240 113.583,260.723 112.621 C 257.882 110.820,258.199 110.829,198.900 110.814 L 142.800 110.800 142.828 111.700 M106.440 112.416 C 105.473 112.855,104.768 113.302,104.876 113.409 C 104.983 113.516,105.684 113.288,106.435 112.902 C 107.217 112.500,109.167 112.101,111.000 111.968 L 114.200 111.735 111.200 111.676 C 108.961 111.633,107.754 111.820,106.440 112.416 M115.914 112.841 C 117.513 113.644,118.676 114.659,120.222 116.600 C 121.070 117.664,120.468 116.498,119.444 115.091 C 118.577 113.900,116.685 112.641,115.149 112.233 C 114.627 112.094,114.971 112.368,115.914 112.841 M102.821 115.100 C 100.230 118.241,100.000 119.602,100.000 131.782 C 100.000 142.711,100.097 144.000,100.923 144.000 C 101.215 144.000,101.201 143.841,100.880 143.520 C 100.530 143.170,100.400 140.037,100.400 131.924 C 100.400 119.582,100.602 118.373,103.206 115.133 C 103.883 114.290,104.352 113.600,104.248 113.600 C 104.144 113.600,103.501 114.275,102.821 115.100 M143.860 117.200 C 143.998 118.630,144.177 119.875,144.256 119.967 C 144.600 120.365,144.349 115.741,143.998 115.200 C 143.735 114.796,143.690 115.451,143.860 117.200 M288.670 118.000 C 288.789 119.210,288.961 148.062,289.052 182.116 C 289.181 230.590,289.324 244.069,289.709 244.206 C 290.575 244.513,313.944 244.611,313.463 244.306 C 313.208 244.144,307.740 244.009,301.311 244.006 L 289.622 244.000 289.471 181.700 C 289.367 138.902,289.185 118.837,288.887 117.600 L 288.455 115.800 288.670 118.000 M120.965 118.261 C 122.148 122.115,122.495 140.842,121.421 142.900 C 121.106 143.505,121.010 144.000,121.210 144.000 C 123.085 144.000,122.867 119.438,120.976 117.659 C 120.824 117.516,120.820 117.788,120.965 118.261 M265.880 120.200 C 266.012 121.080,266.186 149.295,266.266 182.900 L 266.412 244.000 221.106 244.006 C 196.188 244.009,175.592 244.144,175.338 244.306 C 174.845 244.620,265.456 244.525,266.300 244.211 C 267.084 243.920,266.988 124.844,266.201 121.200 C 265.893 119.770,265.748 119.320,265.880 120.200 M144.463 198.600 C 144.454 241.720,144.595 277.720,144.777 278.600 C 144.959 279.480,145.111 244.650,145.114 201.200 C 145.117 157.750,144.976 121.750,144.800 121.200 C 144.624 120.650,144.472 155.480,144.463 198.600 M175.062 144.300 C 174.960 144.465,188.702 144.600,205.600 144.600 C 222.498 144.600,236.240 144.465,236.138 144.300 C 236.036 144.135,222.294 144.000,205.600 144.000 C 188.906 144.000,175.164 144.135,175.062 144.300 M171.105 146.210 C 169.288 147.543,167.928 149.319,166.886 151.719 C 166.355 152.942,166.213 158.637,166.706 158.942 C 166.874 159.046,166.944 157.792,166.862 156.155 C 166.633 151.620,168.455 148.102,172.122 145.999 C 173.265 145.344,173.930 144.810,173.600 144.814 C 173.270 144.817,172.147 145.446,171.105 146.210 M240.069 146.698 C 241.923 148.226,242.308 148.721,243.418 151.000 C 243.954 152.100,244.394 152.768,244.396 152.484 C 244.408 150.930,240.336 145.600,239.138 145.600 C 238.918 145.600,239.337 146.094,240.069 146.698 M244.509 155.600 C 244.509 156.590,244.587 156.995,244.682 156.500 C 244.778 156.005,244.778 155.195,244.682 154.700 C 244.587 154.205,244.509 154.610,244.509 155.600 M167.202 159.962 C 167.200 160.478,168.796 162.847,169.787 163.800 C 171.256 165.212,171.506 165.048,170.123 163.580 C 169.201 162.601,168.167 161.260,167.825 160.600 C 167.484 159.940,167.204 159.653,167.202 159.962 M242.187 162.158 C 241.519 163.061,240.304 164.235,239.487 164.767 C 238.669 165.299,238.080 165.813,238.177 165.911 C 238.607 166.340,241.406 163.997,242.757 162.077 C 244.111 160.151,243.618 160.221,242.187 162.158 M81.600 163.895 C 81.600 164.284,83.214 165.319,83.451 165.082 C 83.547 164.986,83.169 164.610,82.612 164.245 C 82.056 163.880,81.600 163.722,81.600 163.895 M86.400 166.400 C 86.730 166.613,87.450 166.773,88.000 166.754 L 89.000 166.720 88.000 166.400 C 86.458 165.906,85.636 165.906,86.400 166.400 M121.251 167.461 C 121.708 168.013,121.834 177.565,122.003 224.761 L 122.207 281.400 122.303 225.126 C 122.398 169.993,122.335 166.800,121.161 166.800 C 120.852 166.800,120.882 167.016,121.251 167.461 M181.000 188.684 C 191.675 188.930,236.882 188.983,235.782 188.747 C 235.132 188.608,221.460 188.512,205.400 188.534 C 189.340 188.555,178.360 188.623,181.000 188.684 M172.680 189.637 C 165.696 193.323,164.182 202.582,169.667 208.067 C 171.493 209.893,174.154 211.308,175.331 211.078 C 176.094 210.930,176.075 210.902,175.178 210.854 C 173.953 210.789,170.555 208.704,169.299 207.246 C 164.132 201.251,167.312 190.990,174.894 189.192 C 175.981 188.934,176.032 188.878,175.200 188.859 C 174.650 188.846,173.516 189.196,172.680 189.637 M237.400 189.600 C 237.536 189.820,237.845 190.000,238.086 190.000 C 238.843 190.000,241.205 192.014,242.427 193.701 C 243.962 195.820,243.949 195.251,242.412 193.017 C 241.145 191.176,236.356 187.911,237.400 189.600 M244.509 200.000 C 244.509 200.990,244.587 201.395,244.682 200.900 C 244.778 200.405,244.778 199.595,244.682 199.100 C 244.587 198.605,244.509 199.010,244.509 200.000 M243.200 205.077 C 243.200 205.858,240.015 209.102,238.578 209.784 C 237.784 210.160,237.226 210.559,237.336 210.669 C 237.447 210.780,238.367 210.384,239.380 209.790 C 241.148 208.754,243.934 205.401,243.439 204.905 C 243.307 204.774,243.200 204.851,243.200 205.077 M205.600 211.200 L 176.200 211.408 205.400 211.457 C 221.460 211.483,235.140 211.368,235.800 211.200 C 236.808 210.943,236.840 210.902,236.000 210.943 C 235.450 210.970,221.770 211.086,205.600 211.200 M172.162 245.662 L 171.400 246.524 172.600 245.783 C 174.234 244.774,174.209 244.800,173.529 244.800 C 173.196 244.800,172.581 245.188,172.162 245.662 M317.900 247.007 C 319.873 248.696,321.247 250.819,321.628 252.767 C 321.874 254.028,321.914 254.066,321.954 253.084 C 322.037 251.081,318.152 245.600,316.649 245.600 C 316.433 245.600,316.996 246.233,317.900 247.007 M170.300 246.957 C 168.524 248.305,167.023 251.375,166.563 254.600 C 166.449 255.398,166.593 255.197,166.990 254.000 C 167.319 253.010,167.591 251.892,167.594 251.516 C 167.597 251.139,168.412 249.834,169.405 248.616 C 170.397 247.397,171.162 246.406,171.105 246.413 C 171.047 246.420,170.685 246.665,170.300 246.957 M322.200 267.882 C 322.200 275.317,322.322 280.590,322.470 279.600 C 322.815 277.305,322.806 256.503,322.460 255.282 C 322.317 254.777,322.200 260.447,322.200 267.882 M166.094 266.844 C 166.042 272.918,165.911 278.768,165.802 279.844 C 165.624 281.595,165.646 281.666,166.008 280.521 C 166.253 279.743,166.368 274.643,166.300 267.521 L 166.187 255.800 166.094 266.844 M189.232 267.500 C 189.250 267.918,189.344 267.999,189.465 267.700 C 189.754 266.984,298.404 266.964,299.120 267.680 C 300.367 268.927,299.422 280.898,297.878 283.420 L 297.156 284.600 298.141 283.439 C 299.655 281.657,300.803 268.850,299.581 267.377 C 298.768 266.397,189.187 266.520,189.232 267.500 M188.703 281.320 C 188.540 283.036,188.214 284.801,187.977 285.242 C 187.741 285.683,187.626 286.259,187.721 286.522 C 188.078 287.510,189.239 282.371,189.122 280.323 C 189.005 278.286,188.988 278.327,188.703 281.320 M164.140 283.722 C 162.539 285.993,159.146 287.707,155.600 288.034 L 153.000 288.274 155.400 288.333 C 159.081 288.424,163.540 286.024,165.025 283.152 C 165.871 281.517,165.548 281.724,164.140 283.722 M321.664 283.316 C 321.629 284.150,321.221 286.006,320.758 287.441 C 320.294 288.875,319.993 290.126,320.088 290.221 C 320.483 290.616,322.060 284.505,321.900 283.200 L 321.728 281.800 321.664 283.316 M147.025 284.440 C 148.196 285.676,151.840 287.996,152.600 287.989 C 152.820 287.987,152.010 287.447,150.800 286.789 C 149.590 286.131,148.108 285.055,147.506 284.397 C 146.904 283.738,146.285 283.200,146.131 283.200 C 145.977 283.200,146.379 283.758,147.025 284.440 M122.428 284.676 C 122.413 285.158,122.580 285.664,122.800 285.800 C 123.273 286.092,123.273 285.701,122.800 284.600 C 122.469 283.829,122.455 283.831,122.428 284.676 M295.494 285.650 C 294.886 286.104,293.716 286.825,292.894 287.252 C 291.979 287.727,291.788 287.923,292.400 287.756 C 293.552 287.442,296.210 285.830,296.590 285.216 C 296.952 284.631,296.758 284.708,295.494 285.650 M123.234 287.000 C 123.222 287.440,123.387 288.070,123.600 288.400 C 124.114 289.195,124.114 288.196,123.600 287.000 L 123.256 286.200 123.234 287.000 M187.814 288.423 C 188.100 288.885,286.483 288.875,289.400 288.413 C 290.500 288.238,268.041 288.084,239.491 288.071 C 207.108 288.056,187.669 288.188,187.814 288.423 M124.800 291.353 C 124.800 291.782,125.990 294.000,126.221 294.000 C 126.331 294.000,126.123 293.415,125.759 292.700 C 125.017 291.240,124.800 290.936,124.800 291.353 M318.186 293.700 L 317.552 295.000 318.367 294.000 C 319.152 293.037,319.408 292.400,319.010 292.400 C 318.906 292.400,318.535 292.985,318.186 293.700 M126.400 294.705 C 126.400 295.508,131.011 300.968,133.226 302.787 C 134.997 304.242,134.785 303.948,132.080 301.199 C 130.253 299.343,128.228 297.023,127.580 296.044 C 126.931 295.064,126.400 294.462,126.400 294.705 M312.776 300.730 C 311.113 302.442,308.819 304.449,307.677 305.189 C 306.535 305.929,305.678 306.611,305.772 306.706 C 306.268 307.201,312.050 302.279,315.178 298.700 C 317.030 296.581,315.773 297.644,312.776 300.730 M136.224 305.387 C 136.651 305.710,137.180 305.975,137.400 305.975 C 137.620 305.975,137.451 305.710,137.024 305.387 C 136.596 305.064,136.067 304.800,135.847 304.800 C 135.627 304.800,135.796 305.064,136.224 305.387 M139.200 306.990 C 139.200 307.224,141.439 308.401,141.880 308.399 C 142.056 308.398,141.611 308.038,140.890 307.599 C 139.551 306.782,139.200 306.656,139.200 306.990 M303.400 307.627 C 302.740 308.050,302.442 308.397,302.737 308.398 C 303.032 308.399,303.731 308.040,304.291 307.600 C 305.574 306.591,304.990 306.608,303.400 307.627 M142.400 308.568 C 142.400 308.840,146.434 310.099,146.641 309.892 C 146.746 309.788,145.935 309.409,144.840 309.051 C 142.739 308.364,142.400 308.297,142.400 308.568 M299.278 309.095 C 298.331 309.422,297.644 309.778,297.752 309.886 C 297.964 310.097,302.000 308.845,302.000 308.568 C 302.000 308.292,301.101 308.466,299.278 309.095 M148.400 310.564 C 149.170 310.880,150.790 311.127,152.000 311.113 L 154.200 311.086 151.600 310.777 C 150.170 310.607,148.550 310.360,148.000 310.228 C 147.450 310.096,147.630 310.248,148.400 310.564 M295.400 310.400 C 294.896 310.617,294.822 310.744,295.200 310.744 C 295.530 310.744,296.160 310.589,296.600 310.400 C 297.104 310.183,297.178 310.056,296.800 310.056 C 296.470 310.056,295.840 310.211,295.400 310.400 M291.705 311.087 C 292.314 311.179,293.214 311.177,293.705 311.082 C 294.197 310.987,293.700 310.911,292.600 310.914 C 291.500 310.917,291.097 310.995,291.705 311.087 M188.300 311.500 C 207.055 311.557,237.745 311.557,256.500 311.500 C 275.255 311.442,259.910 311.395,222.400 311.395 C 184.890 311.395,169.545 311.442,188.300 311.500 " stroke="none" fill="#144c6b" fill-rule="evenodd"></path><path id="path3" d="M257.300 89.076 C 257.685 89.176,258.315 89.176,258.700 89.076 C 259.085 88.975,258.770 88.893,258.000 88.893 C 257.230 88.893,256.915 88.975,257.300 89.076 M288.995 183.000 C 288.995 216.440,289.042 230.061,289.100 213.269 C 289.158 196.476,289.158 169.116,289.100 152.469 C 289.042 135.821,288.995 149.560,288.995 183.000 M106.123 144.299 C 108.941 144.368,113.441 144.368,116.123 144.299 C 118.805 144.230,116.500 144.173,111.000 144.173 C 105.500 144.174,103.305 144.230,106.123 144.299 M96.700 166.700 C 101.155 166.764,108.445 166.764,112.900 166.700 C 117.355 166.635,113.710 166.582,104.800 166.582 C 95.890 166.582,92.245 166.635,96.700 166.700 M322.175 267.000 C 322.175 272.940,322.231 275.426,322.299 272.524 C 322.367 269.622,322.367 264.762,322.299 261.724 C 322.231 258.686,322.175 261.060,322.175 267.000 M188.957 273.200 C 188.957 276.170,189.020 277.385,189.097 275.900 C 189.174 274.415,189.174 271.985,189.097 270.500 C 189.020 269.015,188.957 270.230,188.957 273.200 M188.100 311.100 C 206.965 311.157,237.835 311.157,256.700 311.100 C 275.565 311.042,260.130 310.995,222.400 310.995 C 184.670 310.995,169.235 311.042,188.100 311.100 " stroke="none" fill="#14648c" fill-rule="evenodd"></path><path id="path4" d="M146.732 89.100 C 167.044 89.157,200.164 89.157,220.332 89.100 C 240.499 89.043,223.880 88.996,183.400 88.996 C 142.920 88.996,126.419 89.043,146.732 89.100 M105.200 89.600 L 104.200 89.920 105.200 89.913 C 105.750 89.909,106.740 89.768,107.400 89.600 L 108.600 89.295 107.400 89.287 C 106.740 89.283,105.750 89.424,105.200 89.600 M260.800 89.600 C 261.350 89.776,262.160 89.926,262.600 89.932 L 263.400 89.944 262.600 89.600 C 262.160 89.411,261.350 89.262,260.800 89.268 L 259.800 89.280 260.800 89.600 M101.800 90.400 L 101.000 90.744 101.800 90.744 C 102.240 90.744,102.960 90.589,103.400 90.400 L 104.200 90.056 103.400 90.056 C 102.960 90.056,102.240 90.211,101.800 90.400 M263.633 90.144 C 263.725 90.223,264.340 90.408,265.000 90.556 C 265.876 90.752,266.038 90.715,265.600 90.418 C 265.060 90.053,263.232 89.798,263.633 90.144 M97.900 91.429 C 97.295 91.757,96.800 92.116,96.800 92.227 C 96.800 92.338,97.205 92.211,97.700 91.945 C 98.195 91.679,99.140 91.331,99.800 91.171 C 100.885 90.910,100.904 90.879,100.000 90.857 C 99.450 90.843,98.505 91.101,97.900 91.429 M267.750 91.388 C 268.603 91.692,269.494 92.134,269.730 92.370 C 269.967 92.607,270.349 92.794,270.580 92.788 C 270.811 92.781,270.280 92.332,269.400 91.790 C 268.520 91.248,267.440 90.811,267.000 90.820 C 266.537 90.829,266.852 91.068,267.750 91.388 M94.100 93.640 C 91.775 95.286,91.942 95.548,94.300 93.954 C 96.646 92.369,96.613 92.396,96.167 92.418 C 95.965 92.428,95.035 92.978,94.100 93.640 M271.200 92.979 C 271.200 93.089,271.740 93.459,272.400 93.800 C 273.060 94.141,273.600 94.331,273.600 94.221 C 273.600 94.111,273.060 93.741,272.400 93.400 C 271.740 93.059,271.200 92.869,271.200 92.979 M275.933 96.247 C 277.107 97.321,278.997 99.201,280.133 100.424 C 281.270 101.648,281.844 102.188,281.410 101.624 C 279.948 99.729,277.012 96.745,275.400 95.515 C 274.304 94.679,274.472 94.909,275.933 96.247 M85.547 101.100 C 83.233 103.924,81.773 106.000,82.101 106.000 C 82.207 106.000,82.752 105.325,83.312 104.500 C 83.872 103.675,84.982 102.280,85.779 101.400 C 87.140 99.897,88.195 98.400,87.894 98.400 C 87.820 98.400,86.764 99.615,85.547 101.100 M284.600 106.800 C 284.941 107.460,285.311 108.000,285.421 108.000 C 285.531 108.000,285.341 107.460,285.000 106.800 C 284.659 106.140,284.289 105.600,284.179 105.600 C 284.069 105.600,284.259 106.140,284.600 106.800 M80.820 108.357 C 80.316 109.433,80.002 110.557,80.121 110.856 C 80.268 111.227,80.347 111.172,80.368 110.684 C 80.386 110.290,80.773 109.238,81.228 108.345 C 81.683 107.453,81.984 106.650,81.896 106.562 C 81.808 106.474,81.324 107.282,80.820 108.357 M285.633 108.400 C 285.615 108.510,285.952 109.500,286.382 110.600 C 286.811 111.700,287.166 112.330,287.171 112.000 C 287.179 111.433,285.701 107.975,285.633 108.400 M109.600 111.184 C 108.895 111.398,109.309 111.484,111.000 111.476 C 112.672 111.469,113.097 111.377,112.400 111.173 C 111.147 110.806,110.840 110.807,109.600 111.184 M257.000 111.200 C 258.196 111.714,259.195 111.714,258.400 111.200 C 258.070 110.987,257.440 110.822,257.000 110.834 L 256.200 110.856 257.000 111.200 M114.833 111.749 C 115.245 112.117,117.600 113.200,117.600 113.021 C 117.600 112.790,115.382 111.600,114.953 111.600 C 114.796 111.600,114.742 111.667,114.833 111.749 M259.600 111.747 C 259.600 111.828,260.320 112.370,261.200 112.953 C 262.080 113.535,262.798 113.874,262.795 113.706 C 262.792 113.538,262.165 112.995,261.401 112.500 C 260.058 111.630,259.600 111.439,259.600 111.747 M287.256 113.200 C 287.256 113.530,287.411 114.160,287.600 114.600 C 287.817 115.104,287.944 115.178,287.944 114.800 C 287.944 114.470,287.789 113.840,287.600 113.400 C 287.383 112.896,287.256 112.822,287.256 113.200 M78.656 114.884 C 78.521 115.388,78.430 116.430,78.452 117.200 C 78.486 118.334,78.562 118.189,78.852 116.439 C 79.220 114.225,79.096 113.243,78.656 114.884 M264.037 115.200 C 265.196 116.996,265.200 117.001,265.198 116.567 C 265.197 116.365,264.732 115.660,264.165 115.000 L 263.134 113.800 264.037 115.200 M143.297 116.200 C 143.296 117.080,143.432 118.340,143.600 119.000 C 144.040 120.730,144.055 118.843,143.620 116.400 L 143.300 114.600 143.297 116.200 M120.606 116.475 C 122.680 119.888,123.428 142.435,121.511 143.777 C 120.798 144.277,120.755 144.400,121.297 144.400 C 122.707 144.400,122.850 143.082,122.699 131.484 C 122.547 119.778,122.337 118.131,120.766 116.332 L 119.953 115.400 120.606 116.475 M288.124 117.800 C 288.126 119.120,288.201 119.612,288.290 118.893 C 288.379 118.174,288.377 117.094,288.286 116.493 C 288.195 115.892,288.122 116.480,288.124 117.800 M100.267 118.267 C 100.120 118.413,100.011 118.908,100.025 119.367 C 100.049 120.133,100.082 120.123,100.434 119.242 C 100.826 118.263,100.744 117.789,100.267 118.267 M77.857 120.700 C 77.529 122.682,77.605 155.134,77.940 156.323 C 78.083 156.830,78.200 148.685,78.200 138.223 C 78.200 127.760,78.179 119.200,78.152 119.200 C 78.126 119.200,77.993 119.875,77.857 120.700 M266.046 119.600 C 266.065 119.930,266.224 120.650,266.400 121.200 L 266.720 122.200 266.754 121.200 C 266.773 120.650,266.613 119.930,266.400 119.600 C 266.055 119.067,266.016 119.067,266.046 119.600 M288.497 182.051 C 288.420 231.141,288.503 243.987,288.900 244.314 C 289.212 244.570,294.222 244.777,302.200 244.863 C 309.240 244.938,314.190 244.878,313.200 244.730 C 312.210 244.581,306.405 244.446,300.300 244.430 C 294.195 244.413,289.156 244.355,289.103 244.300 C 289.050 244.245,288.914 216.300,288.801 182.200 L 288.595 120.200 288.497 182.051 M99.776 132.000 C 99.776 138.270,99.832 140.835,99.899 137.700 C 99.967 134.565,99.967 129.435,99.899 126.300 C 99.832 123.165,99.776 125.730,99.776 132.000 M144.102 199.600 C 144.053 243.050,144.144 278.808,144.306 279.062 C 144.569 279.475,144.562 186.348,144.295 139.000 C 144.238 128.880,144.151 156.150,144.102 199.600 M266.701 183.300 L 266.600 244.200 220.733 244.400 C 195.506 244.510,174.776 244.690,174.666 244.800 C 174.556 244.910,195.189 244.950,220.517 244.889 C 256.248 244.802,266.636 244.668,266.877 244.289 C 267.210 243.764,267.334 122.400,267.001 122.400 C 266.892 122.400,266.757 149.805,266.701 183.300 M175.276 144.740 C 174.768 144.883,188.438 145.000,205.654 145.000 C 222.869 145.000,236.425 144.886,235.777 144.747 C 234.216 144.412,176.465 144.405,175.276 144.740 M172.389 145.860 C 170.633 147.033,168.746 148.969,168.160 150.200 C 167.841 150.869,167.812 151.067,168.094 150.646 C 169.374 148.739,170.725 147.376,172.370 146.333 C 173.353 145.710,173.981 145.200,173.767 145.200 C 173.553 145.200,172.933 145.497,172.389 145.860 M239.000 146.252 C 239.220 146.445,240.120 147.232,240.999 148.001 L 242.598 149.400 241.399 148.066 C 240.740 147.332,239.840 146.545,239.400 146.317 C 238.960 146.089,238.780 146.060,239.000 146.252 M244.120 155.600 C 244.120 156.810,244.195 157.305,244.287 156.700 C 244.378 156.095,244.378 155.105,244.287 154.500 C 244.195 153.895,244.120 154.390,244.120 155.600 M166.812 157.600 C 166.812 157.930,166.987 158.470,167.200 158.800 C 167.545 159.333,167.588 159.333,167.588 158.800 C 167.588 158.470,167.413 157.930,167.200 157.600 C 166.855 157.067,166.812 157.067,166.812 157.600 M78.406 158.633 C 78.409 159.055,78.595 159.670,78.818 160.000 C 79.115 160.438,79.152 160.276,78.956 159.400 C 78.627 157.929,78.398 157.610,78.406 158.633 M168.157 161.000 C 168.473 161.660,169.377 162.820,170.166 163.578 C 171.960 165.303,172.061 164.952,170.292 163.140 C 169.573 162.403,168.669 161.350,168.283 160.800 L 167.582 159.800 168.157 161.000 M241.611 162.306 C 240.877 163.348,240.582 163.946,240.957 163.636 C 241.854 162.891,243.334 160.800,243.116 160.583 C 243.022 160.489,242.345 161.264,241.611 162.306 M80.034 161.847 C 80.565 162.533,81.080 163.023,81.179 162.935 C 81.277 162.847,80.843 162.286,80.213 161.688 L 79.069 160.600 80.034 161.847 M85.633 165.747 C 85.725 165.828,86.520 166.004,87.400 166.138 C 88.515 166.307,88.758 166.271,88.200 166.019 C 87.432 165.671,85.290 165.444,85.633 165.747 M121.423 166.967 C 122.261 167.580,122.640 167.513,122.216 166.827 C 122.071 166.592,121.659 166.400,121.300 166.400 C 120.754 166.400,120.774 166.493,121.423 166.967 M190.929 166.700 C 199.031 166.760,212.171 166.760,220.129 166.700 C 228.088 166.639,221.460 166.590,205.400 166.590 C 189.340 166.590,182.828 166.639,190.929 166.700 M122.595 225.400 C 122.595 257.080,122.642 269.981,122.700 254.069 C 122.758 238.156,122.758 212.236,122.700 196.469 C 122.642 180.701,122.595 193.720,122.595 225.400 M191.500 189.100 C 199.255 189.161,211.945 189.161,219.700 189.100 C 227.455 189.039,221.110 188.989,205.600 188.989 C 190.090 188.989,183.745 189.039,191.500 189.100 M170.643 191.646 C 169.615 192.551,168.507 193.856,168.181 194.546 C 167.855 195.236,167.816 195.466,168.094 195.057 C 169.402 193.134,170.247 192.226,171.723 191.157 C 172.601 190.521,173.138 190.000,172.916 190.000 C 172.694 190.000,171.671 190.741,170.643 191.646 M238.568 190.494 C 238.991 190.772,240.071 191.623,240.968 192.385 L 242.600 193.771 241.400 192.450 C 240.740 191.723,239.660 190.872,239.000 190.559 C 238.340 190.245,238.146 190.216,238.568 190.494 M167.000 197.200 C 166.850 197.673,166.817 198.150,166.927 198.260 C 167.037 198.370,167.250 198.073,167.400 197.600 C 167.550 197.127,167.583 196.650,167.473 196.540 C 167.363 196.430,167.150 196.727,167.000 197.200 M244.120 200.000 C 244.120 201.210,244.195 201.705,244.287 201.100 C 244.378 200.495,244.378 199.505,244.287 198.900 C 244.195 198.295,244.120 198.790,244.120 200.000 M166.812 202.000 C 166.812 202.330,166.987 202.870,167.200 203.200 C 167.545 203.733,167.588 203.733,167.588 203.200 C 167.588 202.870,167.413 202.330,167.200 202.000 C 166.855 201.467,166.812 201.467,166.812 202.000 M168.181 205.454 C 168.786 206.735,172.187 210.000,172.916 210.000 C 173.138 210.000,172.601 209.479,171.723 208.843 C 170.247 207.774,169.402 206.866,168.094 204.943 C 167.816 204.534,167.855 204.764,168.181 205.454 M240.772 207.711 C 239.987 208.420,238.997 209.228,238.572 209.506 C 238.147 209.784,238.340 209.755,239.000 209.441 C 239.660 209.128,240.729 208.315,241.375 207.636 C 242.899 206.033,242.588 206.071,240.772 207.711 M191.500 211.100 C 199.255 211.161,211.945 211.161,219.700 211.100 C 227.455 211.039,221.110 210.989,205.600 210.989 C 190.090 210.989,183.745 211.039,191.500 211.100 M170.134 247.702 C 168.826 249.165,167.600 251.085,167.604 251.662 C 167.606 251.958,168.144 251.265,168.799 250.123 C 169.454 248.980,170.306 247.868,170.692 247.653 C 171.078 247.437,171.291 247.157,171.165 247.032 C 171.039 246.906,170.575 247.207,170.134 247.702 M318.615 248.038 C 319.267 248.829,320.028 249.819,320.306 250.238 C 320.593 250.671,320.566 250.482,320.244 249.800 C 319.931 249.140,319.171 248.150,318.553 247.600 L 317.430 246.600 318.615 248.038 M321.044 252.200 C 321.373 253.671,321.602 253.990,321.594 252.967 C 321.591 252.545,321.405 251.930,321.182 251.600 C 320.885 251.162,320.848 251.324,321.044 252.200 M321.779 267.600 C 321.779 274.750,321.833 277.675,321.899 274.100 C 321.966 270.525,321.966 264.675,321.899 261.100 C 321.833 257.525,321.779 260.450,321.779 267.600 M166.572 266.600 C 166.572 271.660,166.629 273.675,166.699 271.077 C 166.769 268.480,166.768 264.340,166.698 261.877 C 166.628 259.415,166.571 261.540,166.572 266.600 M188.790 267.426 C 188.576 267.990,188.435 271.365,188.478 274.926 L 188.556 281.400 188.811 274.200 C 188.951 270.240,189.096 266.955,189.133 266.900 C 189.439 266.446,299.160 266.870,299.539 267.327 C 299.795 267.635,300.028 270.171,300.100 273.427 L 300.225 279.000 300.312 273.329 C 300.385 268.625,300.293 267.550,299.771 267.029 C 299.206 266.463,293.611 266.400,244.162 266.400 L 189.180 266.400 188.790 267.426 M166.462 278.400 C 166.422 279.170,166.296 280.250,166.183 280.800 L 165.977 281.800 166.408 280.814 C 166.644 280.271,166.770 279.191,166.686 278.414 L 166.534 277.000 166.462 278.400 M299.400 280.400 C 299.248 281.091,299.207 281.741,299.309 281.842 C 299.411 281.944,299.609 281.453,299.750 280.750 C 299.891 280.047,299.931 279.398,299.841 279.308 C 299.750 279.217,299.552 279.709,299.400 280.400 M188.054 283.067 C 188.025 283.544,187.896 284.264,187.770 284.667 C 187.552 285.361,187.564 285.362,187.996 284.688 C 188.247 284.297,188.375 283.577,188.281 283.088 C 188.109 282.201,188.109 282.201,188.054 283.067 M146.357 284.247 C 146.809 284.933,147.679 285.799,148.290 286.171 L 149.400 286.847 148.400 285.989 C 147.850 285.517,146.980 284.651,146.467 284.065 L 145.534 283.000 146.357 284.247 M122.856 284.000 C 122.856 284.330,123.011 284.960,123.200 285.400 C 123.417 285.904,123.544 285.978,123.544 285.600 C 123.544 285.270,123.389 284.640,123.200 284.200 C 122.983 283.696,122.856 283.622,122.856 284.000 M163.377 285.110 C 162.485 285.930,161.405 286.828,160.977 287.106 C 160.550 287.384,160.740 287.342,161.400 287.014 C 162.683 286.375,163.860 285.419,164.749 284.295 C 165.603 283.214,165.147 283.485,163.377 285.110 M296.200 285.835 L 295.000 286.866 296.300 286.006 C 297.015 285.533,297.600 285.068,297.600 284.973 C 297.600 284.673,297.431 284.778,296.200 285.835 M123.858 287.600 C 124.175 289.325,124.402 289.651,124.394 288.367 C 124.391 287.835,124.211 287.130,123.994 286.800 C 123.718 286.378,123.677 286.615,123.858 287.600 M320.229 287.429 C 320.081 288.015,320.038 288.572,320.132 288.666 C 320.227 288.760,320.424 288.358,320.571 287.771 C 320.719 287.185,320.762 286.628,320.668 286.534 C 320.573 286.440,320.376 286.842,320.229 287.429 M293.200 287.600 C 292.430 288.022,291.944 288.374,292.120 288.383 C 292.544 288.405,294.800 287.232,294.800 286.990 C 294.800 286.728,294.777 286.737,293.200 287.600 M187.303 288.400 C 187.482 289.056,288.189 289.548,289.937 288.902 C 290.386 288.736,267.601 288.648,239.305 288.707 C 198.104 288.793,187.785 288.714,187.498 288.307 C 187.228 287.925,187.180 287.948,187.303 288.400 M154.500 288.800 C 155.105 288.982,156.095 288.982,156.700 288.800 C 157.590 288.532,157.381 288.469,155.600 288.469 C 153.819 288.469,153.610 288.532,154.500 288.800 M318.505 292.105 C 317.799 293.452,317.279 294.613,317.351 294.684 C 317.422 294.756,318.065 293.718,318.779 292.379 C 319.493 291.040,320.012 289.879,319.933 289.800 C 319.854 289.721,319.212 290.758,318.505 292.105 M127.341 295.400 C 128.054 296.731,129.400 298.400,129.761 298.400 C 129.890 298.400,129.346 297.545,128.553 296.500 C 126.714 294.076,126.554 293.931,127.341 295.400 M315.900 296.579 C 315.295 297.337,314.800 298.082,314.800 298.234 C 314.800 298.386,315.340 297.831,316.000 297.000 C 317.111 295.602,317.357 295.200,317.100 295.200 C 317.045 295.200,316.505 295.820,315.900 296.579 M313.234 299.753 L 312.269 301.000 313.413 299.912 C 314.043 299.314,314.477 298.753,314.379 298.665 C 314.280 298.577,313.765 299.067,313.234 299.753 M132.378 301.289 C 133.795 302.768,135.040 303.893,135.144 303.789 C 135.248 303.685,135.254 303.555,135.157 303.500 C 135.060 303.445,133.815 302.320,132.390 301.000 L 129.800 298.600 132.378 301.289 M310.392 302.513 C 309.838 303.001,308.758 303.910,307.992 304.532 C 307.227 305.155,306.960 305.480,307.400 305.254 C 308.253 304.816,311.937 301.637,311.600 301.630 C 311.490 301.627,310.947 302.025,310.392 302.513 M138.000 305.779 C 138.000 305.889,138.540 306.259,139.200 306.600 C 139.860 306.941,140.400 307.131,140.400 307.021 C 140.400 306.911,139.860 306.541,139.200 306.200 C 138.540 305.859,138.000 305.669,138.000 305.779 M299.800 308.614 C 298.185 309.354,299.151 309.355,300.854 308.616 C 301.594 308.294,301.930 308.039,301.600 308.048 C 301.270 308.057,300.460 308.312,299.800 308.614 M149.600 310.380 C 150.599 310.720,153.082 310.932,152.767 310.651 C 152.675 310.569,151.700 310.399,150.600 310.272 C 149.251 310.116,148.926 310.151,149.600 310.380 M292.800 310.400 C 291.443 310.686,291.437 310.695,292.600 310.707 C 293.260 310.715,294.250 310.576,294.800 310.400 C 296.112 309.980,294.796 309.980,292.800 310.400 " stroke="none" fill="#146494" fill-rule="evenodd"></path></g></svg>